<svg id="Слой_1" data-name="Слой 1" xmlns="http://www.w3.org/2000/svg" viewBox="0 0 192 192"><defs><style>.cls-1{fill:#44f1a6;}.cls-2{fill:#0e1633;}.cls-3{fill:#fff;}</style></defs><title>Монтажная область 1 копия 7</title><rect class="cls-1" x="0.25" width="192" height="192" rx="7.63"/><path class="cls-2" d="M16.66,73V98.31H8.12V33.56H32q10.64,0,16.63,5.42t6,14.37q0,9.42-5.91,14.54T31.91,73Zm0-7H32c4.57,0,8.06-1.07,10.5-3.21s3.64-5.27,3.64-9.33a12.16,12.16,0,0,0-3.64-9.25q-3.66-3.48-10-3.61H16.66Zm76.8,32.33a17.21,17.21,0,0,1-1.16-5.07,18.36,18.36,0,0,1-13.69,6,17.12,17.12,0,0,1-11.7-4A13.11,13.11,0,0,1,62.37,85a13.58,13.58,0,0,1,5.7-11.66q5.73-4.17,16.09-4.18h8V65.35a9.15,9.15,0,0,0-2.58-6.84Q87,55.93,82,55.93a12,12,0,0,0-7.38,2.22,6.57,6.57,0,0,0-3,5.38H63.35a11.35,11.35,0,0,1,2.54-6.94,17.56,17.56,0,0,1,6.93-5.33,23.45,23.45,0,0,1,9.65-2q8.32,0,13,4.18t4.9,11.43V87.06a27,27,0,0,0,1.69,10.54v.71ZM79.81,92a14.46,14.46,0,0,0,7.33-2,12.1,12.1,0,0,0,5-5.21V75H85.72Q70.6,75,70.6,83.81a7.5,7.5,0,0,0,2.58,6A9.94,9.94,0,0,0,79.81,92Zm56.74-34.47a24.41,24.41,0,0,0-4.05-.31q-8.09,0-11,6.89V98.31h-8.23V50.19h8l.13,5.56A12.81,12.81,0,0,1,132.9,49.3a8.51,8.51,0,0,1,3.65.62Zm21,18.46-5.15,5.38v16.9H144.2V30h8.23V71.31l4.4-5.29,15-15.83h10L163.1,70.29l20.9,28h-9.65Z"/><path class="cls-3" d="M45.64,136.78a28.79,28.79,0,0,1-2.31,11.95,17.39,17.39,0,0,1-6.51,7.76A18,18,0,0,1,27,159.18a17.84,17.84,0,0,1-9.74-2.69,18,18,0,0,1-6.62-7.7,28.07,28.07,0,0,1-2.4-11.6v-3.35A28.37,28.37,0,0,1,10.55,122a17.27,17.27,0,0,1,16.36-10.61,17.87,17.87,0,0,1,9.84,2.72,17.19,17.19,0,0,1,6.58,7.83,28.71,28.71,0,0,1,2.31,11.92Zm-6.11-3q0-8.27-3.32-12.68a10.94,10.94,0,0,0-9.3-4.45,10.84,10.84,0,0,0-9.17,4.45q-3.33,4.41-3.42,12.27v3.42q0,8,3.35,12.62A10.94,10.94,0,0,0,27,154a10.89,10.89,0,0,0,9.21-4.31q3.26-4.35,3.35-12.44ZM90.6,158.54H84.43L61,122.68v35.86H54.84V112H61L84.5,148V112h6.1Z"/><path class="cls-2" d="M134.72,114.83h0a8.19,8.19,0,0,0-1.08.09,3.54,3.54,0,0,0-1,.39,5.19,5.19,0,0,0-1.24,1.1,9.18,9.18,0,0,0-.8,1.13,2.12,2.12,0,0,0-.29.48.25.25,0,0,1,0,.07c-5.91,0-11.83.06-17.74.19a11.14,11.14,0,0,0-9,4.92,7.16,7.16,0,0,0-1.61,3.36c-1.38,3.74-.79,7.82-.92,11.72a18.32,18.32,0,0,0,2,9c1.64,2.59,4.09,4.89,7.22,5.36,4.39.92,8.91.4,13.36.55h6.73s0,0,0,.05a2.36,2.36,0,0,0,.29.48,11,11,0,0,0,.8,1.13,5.41,5.41,0,0,0,1.24,1.1,3.51,3.51,0,0,0,1,.38,5.77,5.77,0,0,0,1.08.09.23.23,0,0,0,.2,0c.06,0,.07-.08.09-.17a.87.87,0,0,0-.06-.36,10,10,0,0,0-.36-1c-.16-.36-.42-.86-.59-1.17s-.19-.36-.28-.5h8.76l0,0a.87.87,0,0,0,.35.23c.19.07.2.05.77.08s2,0,2.43,0a2,2,0,0,0,.7-.11c.17-.07.29-.1.32-.23q6.68,0,13.34,0a2.92,2.92,0,0,0,.74.07c.57,0,2,0,2.44,0a2,2,0,0,0,.6-.08c3.68,0,7.35-.06,11-.11a6.35,6.35,0,0,0,6-4.07c2.2-5.43,2.16-11.46,1.94-17.23-.29-3.77-.77-7.74-2.82-11-1.83-2.59-5.35-2.67-8.23-2.65-2.7,0-5.41,0-8.11,0l-.39,0c-.42,0-1.87,0-2.44,0l-.59,0H147c0-.13-.15-.16-.32-.23a1.76,1.76,0,0,0-.7-.11c-.43,0-1.87,0-2.43,0s-.58,0-.77.08a.78.78,0,0,0-.35.23s0,0-.05,0h-8.75c.09-.14.18-.3.29-.51s.43-.81.59-1.18a9.11,9.11,0,0,0,.36-1A.88.88,0,0,0,135,115c0-.09,0-.13-.09-.17a.18.18,0,0,0-.13,0Zm9.95,3.23h0Zm30.59,1.39a4.84,4.84,0,0,1,2.07.33,3.75,3.75,0,0,1,2.06,2.71,5.69,5.69,0,0,0,.45,1.32,8.17,8.17,0,0,1,.88,2.74l0,.38-.38-.35a5.06,5.06,0,0,1-.77-1.23,9.19,9.19,0,0,0-5.61-5.37c-.22-.08-.22-.09,0-.25A2.78,2.78,0,0,1,175.26,119.45Zm-40.57.24h.84c2.06,0,5.5,0,9.11.12l2.58,0,1,1.58a16.55,16.55,0,0,1,1,1.76c0,.18,0,.18-.78.17l-2.58-.08a86.24,86.24,0,0,1-9.68-1l-1.07-.18-.34-.54c-.19-.3-.54-.81-.79-1.15s-.45-.65-.47-.69A7.34,7.34,0,0,1,134.69,119.69Zm-24.14.08h.67c2.73,0,3.22.22,2.18.93-.61.41-4.5,2.77-6.07,3.69a6.41,6.41,0,0,0-2.47,2.1,2.79,2.79,0,0,1-.81.81c-.39.19-1,.24-1.14.1a2.06,2.06,0,0,1-.08-.76,4.46,4.46,0,0,1,1-2.53,14.49,14.49,0,0,1,2.7-3.07,8.44,8.44,0,0,1,1.66-.9A4.53,4.53,0,0,1,110.55,119.77Zm41.16.16,1.57,0c6.38.16,10.53.3,10.58.35a10.18,10.18,0,0,1,.32,2c0,.69,0,.67-2.31.79-1.59.09-7.59.27-9,.28-.14,0-.29-.27-.88-1.59-.39-.87-.74-1.66-.77-1.74S151.19,119.93,151.71,119.93Zm16,.91.52,0a28.16,28.16,0,0,1,3,.42c.24.15-1,.59-2.5.89-1.12.23-1.25.24-1.52.13s-.31-.42-.15-.9S167.26,120.86,167.68,120.84Zm-45.19.71c.37,0,10.42,2.21,12.16,2.68,1.17.31,3.33,1,4.79,1.62,3.33,1.31,5,1.76,6.71,1.76,1.28,0,1.35,0,2.4,1.16l1.08,1.15v11.46l-1,1.12-1.05,1.12-2,.12a11.91,11.91,0,0,0-4.24,1,69.65,69.65,0,0,1-12.47,3.65l-5.87,1.26c-.42.1-.6,0-1-.76a41.17,41.17,0,0,1-2.11-6.58,40.2,40.2,0,0,1,.12-13.86C120.73,125.32,122.12,121.55,122.49,121.55Zm54,1.2c.65,0,.84.52,1.54,1.83,1.9,3.57,2.48,6.65,2.3,12.31-.14,4.44-.51,6.15-2.05,9.28-1.34,2.72-1.38,2.74-3.36,1.8-.89-.43-2.23-1-3-1.28a6.92,6.92,0,0,1-1.34-.6c0-.05.37-.81.81-1.69a17.16,17.16,0,0,0,1.84-8.87c0-3.89-.42-5.82-1.83-8.62a9.24,9.24,0,0,1-.77-1.74s1.42-.65,3.07-1.37A11.43,11.43,0,0,1,176.47,122.75Zm-73.29,21a1.17,1.17,0,0,1,.35,0c.69.17.8.25,1.38,1.05a7,7,0,0,0,2.81,2.27c2.55,1.47,6,3.62,6.1,3.82.27.43,0,.5-2.41.53a7.66,7.66,0,0,1-2.84-.2,9,9,0,0,1-4.52-3.85c-1-1.47-1.21-2-1.22-2.81C102.83,144,102.91,143.77,103.18,143.74Zm77.5.61,0,.35a7.74,7.74,0,0,1-.86,2.69,6.17,6.17,0,0,0-.45,1.34,3.72,3.72,0,0,1-3.84,3.09,6.45,6.45,0,0,1-1.06-.1,3.23,3.23,0,0,1-.58-.21c-.21-.12-.2-.13.12-.27a8.58,8.58,0,0,0,3.15-1.9,11,11,0,0,0,2.32-3.4,5.88,5.88,0,0,1,.85-1.34Zm-28,3.54h1.65c2,0,5.95.17,8.08.28,1.27.08,1.58.12,1.66.22a3.38,3.38,0,0,1,0,1.79l-.14.74-.37.06c-.36,0-4.65.18-9.83.29a10.7,10.7,0,0,1-2.51,0s.36-.82.76-1.72Zm-4.87,0c.89,0,1.46,0,1.46.12s-1.81,3-2,3.25-2.2.15-11.39.29l-2.4,0,.33-.47c.19-.25.57-.81.84-1.23a2.53,2.53,0,0,1,.67-.8c.93-.21,4.5-.68,6.72-.9C144,148,146.33,147.92,147.81,147.92Zm19.79,1a7.61,7.61,0,0,1,1.49.24c1.66.37,2.5.75,1.95.86a28.42,28.42,0,0,1-2.88.35l-.84,0-.17-.27a2.1,2.1,0,0,1-.22-.59C166.86,149.11,167,148.91,167.6,148.92Z"/></svg>